<svg xmlns="http://www.w3.org/2000/svg" viewBox="0 0 128 128" width="128" height="128" role="img" aria-label="╝	¨ `Dä└">
  <defs>
    <linearGradient id="g" x1="0" y1="0" x2="1" y2="1">
      <stop offset="0%" stop-color="#f5e6d3"/>
      <stop offset="100%" stop-color="#e2c9a8"/>
    </linearGradient>
  </defs>
  <circle cx="64" cy="72" r="46" fill="url(#g)" stroke="#8b5a2b" stroke-width="3"/>
  <ellipse cx="64" cy="58" rx="34" ry="38" fill="#f0dcc4" stroke="#7a4a24" stroke-width="2"/>
  <path d="M36 54c6-10 18-16 28-16s24 6 30 16" fill="none" stroke="#6b3f1d" stroke-width="2" stroke-linecap="round"/>
  <ellipse cx="48" cy="56" rx="5" ry="6" fill="#2a1a0f"/>
  <ellipse cx="80" cy="56" rx="5" ry="6" fill="#2a1a0f"/>
  <path d="M54 72c6 8 14 8 20 0" fill="none" stroke="#6b3f1d" stroke-width="2" stroke-linecap="round"/>
  <path d="M58 84c8 6 16 6 24 0" fill="none" stroke="#a0703a" stroke-width="2" stroke-linecap="round"/>
  <ellipse cx="64" cy="98" rx="22" ry="12" fill="#f3e1cc" stroke="#8b5a2b" stroke-width="2"/>
  <path d="M28 40c-4-12 4-22 14-26 6-2 12-2 18 0" fill="none" stroke="#5c3b1f" stroke-width="3" stroke-linecap="round"/>
  <path d="M100 40c4-12-4-22-14-26-6-2-12-2-18 0" fill="none" stroke="#5c3b1f" stroke-width="3" stroke-linecap="round"/>
</svg>
